<?xml version="1.0" encoding="UTF-8" standalone="no"?>
<svg
   xmlns:dc="http://purl.org/dc/elements/1.1/"
   xmlns:cc="http://creativecommons.org/ns#"
   xmlns:rdf="http://www.w3.org/1999/02/22-rdf-syntax-ns#"
   xmlns:svg="http://www.w3.org/2000/svg"
   xmlns="http://www.w3.org/2000/svg"
   id="svg8"
   version="1.1"
   viewBox="0 0 5.3640141 6.0771399"
   height="6.0771399mm"
   width="5.3640141mm">
  <defs
     id="defs2" />
  <metadata
     id="metadata5">
    <rdf:RDF>
      <cc:Work
         rdf:about="">
        <dc:format>image/svg+xml</dc:format>
        <dc:type
           rdf:resource="http://purl.org/dc/dcmitype/StillImage" />
        <dc:title></dc:title>
      </cc:Work>
    </rdf:RDF>
  </metadata>
  <g
     transform="translate(-48.964898,-102.08462)"
     id="layer1">
    <g
       id="text12"
       style="font-style:normal;font-weight:normal;font-size:10.58333302px;line-height:1.25;font-family:sans-serif;letter-spacing:0px;word-spacing:0px;fill:#000000;fill-opacity:1;stroke:none;stroke-width:0.26458332"
       aria-label="e">
      <path
         id="path3717"
         style="stroke-width:0.26458332;fill:#1a1a1a"
         d="m 54.328912,104.88031 v 0.46509 h -4.371826 q 0.06201,0.98185 0.589111,1.49861 0.532267,0.5116 1.477946,0.5116 0.54777,0 1.059367,-0.13436 0.516764,-0.13436 1.023193,-0.40307 v 0.89917 q -0.511596,0.21704 -1.049031,0.33073 -0.537435,0.11368 -1.090373,0.11368 -1.384928,0 -2.196248,-0.80615 -0.806153,-0.80615 -0.806153,-2.18074 0,-1.42111 0.764812,-2.2531 0.769978,-0.83715 2.072224,-0.83715 1.167888,0 1.844849,0.75447 0.682129,0.74931 0.682129,2.04122 z m -0.950846,-0.27905 q -0.01034,-0.78032 -0.43925,-1.2454 -0.423747,-0.46509 -1.126546,-0.46509 -0.795817,0 -1.276408,0.44958 -0.475423,0.44959 -0.54777,1.26608 z" />
    </g>
    <path
       transform="matrix(0.26458333,0,0,0.26458333,48.964898,102.08462)"
       id="path3720"
       d="M 10.22846,22.880147 C 6.6786019,22.502165 4.2624744,21.343299 2.4320015,19.140669 1.7401657,18.308176 0.72011673,16.226632 0.44380312,15.083489 -0.03569454,13.09975 -0.01248532,9.875509 0.49549636,7.9022276 1.5623618,3.7579324 4.2907838,1.1032279 8.3220552,0.28712925 9.809898,-0.01407265 12.57494,0.08143165 13.827129,0.47727399 c 1.40943,0.4455495 2.423731,1.07671591 3.538445,2.20185941 1.958174,1.9764925 2.838143,4.4714774 2.838143,8.0470156 v 1.498689 H 11.925356 3.6469949 l 0.082928,0.599778 c 0.4529812,3.27621 1.649449,5.254789 3.8071672,6.29585 1.2186997,0.588002 2.3252552,0.801966 4.1610829,0.804593 2.272919,0.0032 4.284121,-0.424841 6.516806,-1.387129 l 1.104854,-0.476191 v 1.615295 1.615293 l -1.04172,0.375196 c -1.254213,0.45173 -2.903085,0.865122 -4.086423,1.024515 -1.06304,0.143191 -3.360823,0.252251 -3.96323,0.188109 z M 16.652783,8.6258549 C 16.412465,6.1099503 15.068961,4.1742188 13.00638,3.3720867 12.059256,3.0037528 10.228961,2.9162642 8.9874564,3.179981 7.5733458,3.4803621 6.781106,3.9025441 5.8201843,4.8678099 4.6848039,6.0083232 4.1995731,7.0541181 3.8566702,9.0996783 l -0.079376,0.473509 h 6.4829888 6.482988 z"
       style="fill:#ff0000;stroke-width:0.12626907;stroke:none" />
  </g>
</svg>
